<svg width="16" height="16" viewBox="0 0 16 16" fill="none" xmlns="http://www.w3.org/2000/svg">
<path d="M12.0003 15.1687C11.6034 15.1688 11.2173 15.0396 10.9003 14.8007L8.10033 12.7007C8.07152 12.6789 8.03641 12.6672 8.00033 12.6672C7.96424 12.6672 7.92913 12.6789 7.90033 12.7007L5.10033 14.8007C4.82795 15.0049 4.50407 15.1293 4.16497 15.1599C3.82587 15.1905 3.48496 15.126 3.18043 14.9738C2.87591 14.8215 2.6198 14.5874 2.4408 14.2978C2.2618 14.0082 2.16699 13.6745 2.16699 13.334V3.00065C2.1677 2.42623 2.3962 1.87554 2.80237 1.46937C3.20855 1.06319 3.75924 0.83469 4.33366 0.833984H11.667C12.2414 0.83469 12.7921 1.06319 13.1983 1.46937C13.6045 1.87554 13.833 2.42623 13.8337 3.00065V13.334C13.8326 13.82 13.6392 14.2859 13.2956 14.6297C12.9521 14.9735 12.4864 15.1672 12.0003 15.1687ZM11.5003 14.0007C11.6241 14.0935 11.7714 14.1501 11.9255 14.164C12.0796 14.1778 12.2346 14.1486 12.373 14.0793C12.5114 14.0101 12.6278 13.9037 12.7092 13.7721C12.7906 13.6404 12.8337 13.4887 12.8337 13.334V3.00065C12.8333 2.69134 12.7103 2.3948 12.4916 2.17608C12.2728 1.95737 11.9763 1.83434 11.667 1.83398H4.33366C4.02435 1.83434 3.72781 1.95737 3.50909 2.17608C3.29037 2.3948 3.16735 2.69134 3.16699 3.00065V13.334C3.16699 13.4887 3.21009 13.6404 3.29145 13.7721C3.37281 13.9037 3.48923 14.0101 3.62765 14.0793C3.76607 14.1486 3.92103 14.1778 4.07516 14.164C4.2293 14.1501 4.37652 14.0935 4.50033 14.0007L7.30033 11.9007C7.50262 11.75 7.74811 11.6686 8.00033 11.6686C8.25254 11.6686 8.49804 11.75 8.70033 11.9007L11.5003 14.0007Z" fill="#022E5B"/>
<path d="M10 5.16797H6C5.86739 5.16797 5.74022 5.11529 5.64645 5.02152C5.55268 4.92775 5.5 4.80058 5.5 4.66797C5.5 4.53536 5.55268 4.40818 5.64645 4.31442C5.74022 4.22065 5.86739 4.16797 6 4.16797H10C10.1326 4.16797 10.2598 4.22065 10.3536 4.31442C10.4473 4.40818 10.5 4.53536 10.5 4.66797C10.5 4.80058 10.4473 4.92775 10.3536 5.02152C10.2598 5.11529 10.1326 5.16797 10 5.16797Z" fill="#022E5B"/>
</svg>
